<?xml version="1.0" standalone="no"?>
<!DOCTYPE svg PUBLIC "-//W3C//DTD SVG 20010904//EN"
 "http://www.w3.org/TR/2001/REC-SVG-20010904/DTD/svg10.dtd">
<svg version="1.0" xmlns="http://www.w3.org/2000/svg"
 width="512.000000pt" height="512.000000pt" viewBox="0 0 512.000000 512.000000"
 preserveAspectRatio="xMidYMid meet">
<metadata>
Created by potrace 1.10, written by Peter Selinger 2001-2011
</metadata>
<g transform="translate(0.000000,512.000000) scale(0.050000,-0.050000)"
fill="#000000" stroke="none">
<path d="M5158 10151 c-51 -86 -151 -114 -227 -63 -97 63 -459 12 -619 -87
-117 -72 -281 -292 -441 -591 -129 -241 -229 -301 -251 -150 -14 96 -110 115
-128 26 -13 -64 -42 -1261 -72 -2936 -12 -627 -30 -1446 -40 -1820 -11 -374
-19 -968 -20 -1319 0 -511 -5 -634 -25 -614 -20 20 -27 723 -37 3319 -11 3223
-15 3404 -69 3404 -24 0 -35 45 -54 220 -6 57 -193 76 -211 21 -5 -14 -26 -40
-46 -58 -33 -27 -38 -61 -38 -237 l0 -205 -85 -54 c-46 -29 -152 -118 -236
-198 -101 -97 -174 -149 -220 -159 -38 -9 -97 -29 -132 -45 -90 -43 -135 -25
-337 137 -98 79 -202 150 -229 157 -44 12 -52 28 -61 112 -12 120 -61 137 -82
29 -21 -107 -61 -1004 -108 -2440 -6 -181 -19 -735 -30 -1230 -38 -1784 -44
-2020 -52 -2028 -30 -32 -6 5198 24 5286 26 75 29 129 16 268 -8 96 -19 154
-23 129 -9 -53 -45 -61 -45 -10 0 114 -123 325 -189 325 -110 0 -110 1 -151
-637 -19 -297 -26 -333 -69 -390 -110 -144 -291 -709 -291 -907 0 -154 -80
-459 -162 -616 -343 -657 -378 -761 -378 -1114 0 -353 102 -717 299 -1066 44
-77 120 -216 170 -310 50 -93 126 -215 170 -270 140 -176 134 -129 114 -869
l-18 -669 54 -47 c44 -37 61 -42 84 -23 22 19 37 15 73 -18 24 -23 67 -50 96
-61 43 -16 56 -40 75 -133 44 -222 157 -299 219 -150 22 50 47 80 69 80 39 0
115 109 115 164 0 72 77 84 161 25 116 -80 260 -24 684 264 255 173 375 195
375 69 0 -55 108 -182 155 -182 12 0 41 26 64 58 38 54 46 57 106 38 120 -39
124 -44 137 -177 20 -202 137 -262 170 -87 9 52 22 67 55 67 24 0 70 5 103 12
58 12 68 3 198 -172 261 -348 672 -639 906 -639 143 0 145 -1 178 -65 50 -99
89 -135 146 -135 39 -1 60 -17 82 -65 53 -114 143 -103 196 24 46 112 61 120
114 61 83 -91 132 -30 148 185 l12 163 120 42 c148 52 215 87 426 223 312 202
484 266 721 269 145 3 171 -14 174 -116 3 -82 97 -186 135 -148 13 13 38 -6
77 -59 65 -89 90 -96 162 -39 55 43 78 31 103 -52 41 -133 124 -132 200 4 56
100 62 170 98 1143 7 209 14 220 157 273 526 192 1197 2255 1058 3252 -74 522
-156 678 -556 1052 -162 152 -346 344 -409 427 l-115 151 -5 490 c-6 486 -6
490 -50 496 -63 9 -94 -418 -146 -2056 -11 -357 -29 -929 -40 -1270 -11 -341
-26 -962 -34 -1380 -9 -524 -19 -741 -32 -700 -26 85 -26 734 2 1760 35 1267
33 2178 -5 2510 -19 167 -31 447 -31 735 l0 464 -55 35 c-30 19 -80 55 -112
80 -31 25 -70 46 -87 46 -18 0 -42 13 -54 29 -77 102 -435 75 -852 -63 -252
-84 -504 -89 -651 -13 l-79 41 -11 358 c-6 197 -13 360 -15 363 -11 14 -62 2
-79 -20 -31 -38 -84 -2064 -145 -5535 -12 -676 -24 -1306 -27 -1400 -3 -93 -7
1343 -9 3193 -4 3082 -1 3364 28 3389 45 37 30 371 -20 447 -54 83 -180 73
-234 -18z m-463 -4016 c5 -1945 3 -2115 -27 -2115 -32 0 -28 -513 5 -652 14
-61 -17 -66 -243 -38 -379 47 -565 160 -747 457 l-84 136 6 474 5 473 132 13
c161 16 272 70 410 201 97 91 105 95 111 54 14 -91 54 -56 110 96 105 287 76
846 -59 1116 -130 260 -332 357 -586 280 -54 -16 -100 -30 -103 -30 -3 0 -3
335 0 744 l5 744 120 26 c335 70 832 146 910 138 26 -2 31 -255 35 -2117z
m1157 1983 c292 -90 751 -338 864 -466 l59 -68 13 -397 c7 -218 18 -487 24
-597 l12 -200 -129 135 c-320 333 -675 305 -805 -64 -75 -215 -14 -491 205
-922 135 -266 178 -319 198 -243 10 38 15 39 78 12 122 -51 257 -37 339 35 91
80 85 105 74 -319 l-9 -366 -53 -33 c-170 -106 -176 -148 -59 -456 176 -468
129 -684 -156 -715 l-103 -12 -13 94 c-21 146 -88 380 -132 461 l-41 73 11
-80 c6 -44 26 -180 44 -302 18 -122 28 -236 22 -252 -13 -34 -245 -76 -413
-76 l-97 0 -14 155 c-31 335 -109 588 -158 510 -9 -14 12 -363 35 -590 10 -90
8 -95 -39 -95 -37 0 -49 11 -50 45 -3 276 4 1214 10 1245 4 22 9 76 10 120 2
70 5 75 24 40 44 -80 186 -210 229 -210 172 0 97 324 -130 558 l-108 112 4
730 c3 402 13 1032 23 1400 10 369 18 695 19 725 0 68 28 70 212 13z m-3272
-1731 l0 -1192 -85 13 c-395 63 -508 5 -158 -80 263 -65 243 -20 243 -540 0
-511 17 -476 -192 -398 -479 180 -660 436 -747 1056 -98 698 -28 1122 269
1624 158 269 565 710 654 710 9 0 16 -537 16 -1193z"/>
</g>
</svg>
